<svg width="139" height="46" viewBox="0 0 139 46" fill="none" xmlns="http://www.w3.org/2000/svg">
<path d="M39.8379 22.9072C39.661 21.7582 38.5856 20.9714 37.4367 21.1476C36.2897 21.3303 35.5009 22.4005 35.6772 23.5494C36.3227 27.7266 35.3018 31.905 32.803 35.3143C30.3055 38.7237 26.6299 40.9574 22.4514 41.5997C22.324 41.6188 22.1965 41.6321 22.0691 41.6492C21.0533 41.6378 20.1657 40.894 20.011 39.8554C19.8562 38.8289 20.4725 37.8702 21.4236 37.55C21.5523 37.5354 21.6811 37.5304 21.811 37.5107C22.414 37.4169 23.0037 37.2793 23.5744 37.0986C25.8988 36.3605 27.9246 34.9111 29.3937 32.9056C31.2242 30.4093 31.9718 27.3474 31.5 24.2875C31.3206 23.1196 30.2268 22.32 29.0602 22.5001C27.8948 22.6859 27.0933 23.772 27.2721 24.9393C27.5721 26.8706 27.0991 28.8032 25.9444 30.3789C24.7892 31.9545 23.0887 32.988 21.1592 33.2841C17.1717 33.8991 13.4269 31.1562 12.8125 27.168C12.5139 25.2373 12.9856 23.306 14.1402 21.7297C15.2942 20.1528 16.9935 19.1187 18.9255 18.8245C20.0883 18.6381 20.8917 17.5526 20.7135 16.384C20.534 15.2167 19.4403 14.4165 18.2736 14.5966C15.2162 15.0715 12.5202 16.7048 10.6897 19.2011C8.8592 21.6986 8.11164 24.7611 8.58465 27.8211C8.59733 27.8997 8.61953 27.9758 8.63285 28.0544C8.62904 29.0765 7.89607 29.9769 6.85305 30.1271C4.92996 30.4036 4.47788 28.653 4.38721 28.2852C3.77154 24.1366 4.79363 19.9943 7.27279 16.6078C9.7716 13.1979 13.4472 10.9641 17.6256 10.3224C18.7714 10.1398 19.5614 9.0708 19.3851 7.92126C19.2082 6.77235 18.1323 5.98612 16.984 6.16239C11.696 6.97842 7.03945 9.80504 3.87805 14.1198C0.715387 18.4358 -0.577445 23.727 0.238583 29.0156C1.05461 34.3043 3.8806 38.9583 8.19788 42.1216C12.5139 45.2836 17.8026 46.5764 23.0906 45.7617C24.1336 45.6006 25.1512 45.3622 26.1385 45.0484C30.1558 43.7733 33.6577 41.2694 36.1965 37.8024C39.361 33.4864 40.6539 28.1952 39.8379 22.9072Z" fill="url(#paint0_linear_890_238)"/>
<path d="M52.4042 13.195C50.8032 11.946 48.5022 12.2104 47.2176 13.7727L40.3692 9.53021C41.2112 6.68838 40.3001 3.49844 37.8191 1.56648C34.5879 -0.951355 29.9244 -0.37246 27.4079 2.86059C24.9928 5.95985 25.4315 10.3672 28.3177 12.9459L21.8808 22.1682C20.1036 21.4061 17.9674 21.8975 16.7215 23.4978C15.2404 25.4019 15.5834 28.1492 17.483 29.6285C19.3877 31.1141 22.1306 30.7704 23.613 28.867C24.9528 27.1417 24.7956 24.7291 23.3379 23.1865L29.7748 13.9642C32.9007 15.6317 36.8597 14.8671 39.1125 11.9802C39.3129 11.7215 39.4879 11.4514 39.6502 11.1762L46.4441 15.3851C46.1632 16.7381 46.6426 18.1952 47.8048 19.1006C49.4381 20.3738 51.7898 20.0803 53.0605 18.4495C54.3299 16.8193 54.0376 14.4657 52.4042 13.195Z" fill="url(#paint1_linear_890_238)"/>
<path d="M55.692 32V19.4H61.2C62.568 19.4 63.768 19.664 64.8 20.192C65.832 20.72 66.636 21.452 67.212 22.388C67.788 23.324 68.076 24.428 68.076 25.7C68.076 26.96 67.788 28.064 67.212 29.012C66.636 29.948 65.832 30.68 64.8 31.208C63.768 31.736 62.568 32 61.2 32H55.692ZM58.032 30.02H61.092C62.04 30.02 62.856 29.84 63.54 29.48C64.236 29.12 64.77 28.616 65.142 27.968C65.526 27.32 65.718 26.564 65.718 25.7C65.718 24.824 65.526 24.068 65.142 23.432C64.77 22.784 64.236 22.28 63.54 21.92C62.856 21.56 62.04 21.38 61.092 21.38H58.032V30.02ZM76.2691 32V30.056L76.1431 29.642V26.24C76.1431 25.58 75.9451 25.07 75.5491 24.71C75.1531 24.338 74.5531 24.152 73.7491 24.152C73.2091 24.152 72.6751 24.236 72.1471 24.404C71.6311 24.572 71.1931 24.806 70.8331 25.106L69.9511 23.468C70.4671 23.072 71.0791 22.778 71.7871 22.586C72.5071 22.382 73.2511 22.28 74.0191 22.28C75.4111 22.28 76.4851 22.616 77.2411 23.288C78.0091 23.948 78.3931 24.974 78.3931 26.366V32H76.2691ZM73.2451 32.126C72.5251 32.126 71.8951 32.006 71.3551 31.766C70.8151 31.514 70.3951 31.172 70.0951 30.74C69.8071 30.296 69.6631 29.798 69.6631 29.246C69.6631 28.706 69.7891 28.22 70.0411 27.788C70.3051 27.356 70.7311 27.014 71.3191 26.762C71.9071 26.51 72.6871 26.384 73.6591 26.384H76.4491V27.878H73.8211C73.0531 27.878 72.5371 28.004 72.2731 28.256C72.0091 28.496 71.8771 28.796 71.8771 29.156C71.8771 29.564 72.0391 29.888 72.3631 30.128C72.6871 30.368 73.1371 30.488 73.7131 30.488C74.2651 30.488 74.7571 30.362 75.1891 30.11C75.6331 29.858 75.9511 29.486 76.1431 28.994L76.5211 30.344C76.3051 30.908 75.9151 31.346 75.3511 31.658C74.7991 31.97 74.0971 32.126 73.2451 32.126ZM84.8987 32.126C83.8427 32.126 83.0267 31.856 82.4507 31.316C81.8747 30.764 81.5867 29.954 81.5867 28.886V20.264H83.8367V28.832C83.8367 29.288 83.9507 29.642 84.1787 29.894C84.4187 30.146 84.7487 30.272 85.1687 30.272C85.6727 30.272 86.0927 30.14 86.4287 29.876L87.0587 31.478C86.7947 31.694 86.4707 31.856 86.0867 31.964C85.7027 32.072 85.3067 32.126 84.8987 32.126ZM80.0027 24.26V22.46H86.4107V24.26H80.0027ZM94.8316 32V30.056L94.7056 29.642V26.24C94.7056 25.58 94.5076 25.07 94.1116 24.71C93.7156 24.338 93.1156 24.152 92.3116 24.152C91.7716 24.152 91.2376 24.236 90.7096 24.404C90.1936 24.572 89.7556 24.806 89.3956 25.106L88.5136 23.468C89.0296 23.072 89.6416 22.778 90.3496 22.586C91.0696 22.382 91.8136 22.28 92.5816 22.28C93.9736 22.28 95.0476 22.616 95.8036 23.288C96.5716 23.948 96.9556 24.974 96.9556 26.366V32H94.8316ZM91.8076 32.126C91.0876 32.126 90.4576 32.006 89.9176 31.766C89.3776 31.514 88.9576 31.172 88.6576 30.74C88.3696 30.296 88.2256 29.798 88.2256 29.246C88.2256 28.706 88.3516 28.22 88.6036 27.788C88.8676 27.356 89.2936 27.014 89.8816 26.762C90.4696 26.51 91.2496 26.384 92.2216 26.384H95.0116V27.878H92.3836C91.6156 27.878 91.0996 28.004 90.8356 28.256C90.5716 28.496 90.4396 28.796 90.4396 29.156C90.4396 29.564 90.6016 29.888 90.9256 30.128C91.2496 30.368 91.6996 30.488 92.2756 30.488C92.8276 30.488 93.3196 30.362 93.7516 30.11C94.1956 29.858 94.5136 29.486 94.7056 28.994L95.0836 30.344C94.8676 30.908 94.4776 31.346 93.9136 31.658C93.3616 31.97 92.6596 32.126 91.8076 32.126Z" fill="#3762CB"/>
<path d="M105.034 32V19.4H107.374V30.02H113.962V32H105.034ZM119.825 32.126C118.841 32.126 117.965 31.916 117.197 31.496C116.429 31.064 115.823 30.476 115.379 29.732C114.935 28.988 114.713 28.142 114.713 27.194C114.713 26.234 114.935 25.388 115.379 24.656C115.823 23.912 116.429 23.33 117.197 22.91C117.965 22.49 118.841 22.28 119.825 22.28C120.821 22.28 121.703 22.49 122.471 22.91C123.251 23.33 123.857 23.906 124.289 24.638C124.733 25.37 124.955 26.222 124.955 27.194C124.955 28.142 124.733 28.988 124.289 29.732C123.857 30.476 123.251 31.064 122.471 31.496C121.703 31.916 120.821 32.126 119.825 32.126ZM119.825 30.2C120.377 30.2 120.869 30.08 121.301 29.84C121.733 29.6 122.069 29.252 122.309 28.796C122.561 28.34 122.687 27.806 122.687 27.194C122.687 26.57 122.561 26.036 122.309 25.592C122.069 25.136 121.733 24.788 121.301 24.548C120.869 24.308 120.383 24.188 119.843 24.188C119.291 24.188 118.799 24.308 118.367 24.548C117.947 24.788 117.611 25.136 117.359 25.592C117.107 26.036 116.981 26.57 116.981 27.194C116.981 27.806 117.107 28.34 117.359 28.796C117.611 29.252 117.947 29.6 118.367 29.84C118.799 30.08 119.285 30.2 119.825 30.2ZM131.463 35.618C130.575 35.618 129.705 35.498 128.853 35.258C128.013 35.03 127.323 34.694 126.783 34.25L127.791 32.558C128.211 32.906 128.739 33.182 129.375 33.386C130.023 33.602 130.677 33.71 131.337 33.71C132.393 33.71 133.167 33.464 133.659 32.972C134.151 32.492 134.397 31.766 134.397 30.794V29.084L134.577 26.906L134.505 24.728V22.388H136.647V30.542C136.647 32.282 136.203 33.56 135.315 34.376C134.427 35.204 133.143 35.618 131.463 35.618ZM131.175 31.568C130.263 31.568 129.435 31.376 128.691 30.992C127.959 30.596 127.377 30.05 126.945 29.354C126.525 28.658 126.315 27.842 126.315 26.906C126.315 25.982 126.525 25.172 126.945 24.476C127.377 23.78 127.959 23.24 128.691 22.856C129.435 22.472 130.263 22.28 131.175 22.28C131.991 22.28 132.723 22.442 133.371 22.766C134.019 23.09 134.535 23.594 134.919 24.278C135.315 24.962 135.513 25.838 135.513 26.906C135.513 27.974 135.315 28.856 134.919 29.552C134.535 30.236 134.019 30.746 133.371 31.082C132.723 31.406 131.991 31.568 131.175 31.568ZM131.517 29.66C132.081 29.66 132.585 29.546 133.029 29.318C133.473 29.078 133.815 28.754 134.055 28.346C134.307 27.926 134.433 27.446 134.433 26.906C134.433 26.366 134.307 25.892 134.055 25.484C133.815 25.064 133.473 24.746 133.029 24.53C132.585 24.302 132.081 24.188 131.517 24.188C130.953 24.188 130.443 24.302 129.987 24.53C129.543 24.746 129.195 25.064 128.943 25.484C128.703 25.892 128.583 26.366 128.583 26.906C128.583 27.446 128.703 27.926 128.943 28.346C129.195 28.754 129.543 29.078 129.987 29.318C130.443 29.546 130.953 29.66 131.517 29.66Z" fill="#7EDE81"/>
<defs>
<linearGradient id="paint0_linear_890_238" x1="20.0387" y1="5.64037" x2="20.0387" y2="47.5151" gradientUnits="userSpaceOnUse">
<stop stop-color="#8FFFFF"/>
<stop offset="0.5054" stop-color="#60A8FB"/>
<stop offset="1" stop-color="#3762CB"/>
</linearGradient>
<linearGradient id="paint1_linear_890_238" x1="15.8017" y1="15.2761" x2="53.8499" y2="15.2761" gradientUnits="userSpaceOnUse">
<stop stop-color="#97FF9B"/>
<stop offset="0.5054" stop-color="#7EDE81"/>
<stop offset="0.5777" stop-color="#75CE80"/>
<stop offset="0.7541" stop-color="#63AD7E"/>
<stop offset="0.9012" stop-color="#57997D"/>
<stop offset="1" stop-color="#53927D"/>
</linearGradient>
</defs>
</svg>
